# xmcd
#
# Track frame offsets:
#	150
#	17772
#	35915
#	53250
#	66897
#	85710
#	104093
#	121935
#	136134
#	148755
#	169900
#	183606
#	201364
#	213369
#	228580
#
# Disc length: 3250 seconds
# Revision: 3
# Processed by: cddbd v1.5.2PL0 Copyright (c) Steve Scherf et al.
# Submitted via: dBpowerAMP V12.0
#
DISCID=dc0cb00f
DTITLE=Anne Murray - Country Croonin' (2002 CAN)[CD1]
DYEAR=2002
DGENRE=Country
TTITLE0=Help Me Make It Through The Night
TTITLE1=Someday (You'll Want Me To Want You)
TTITLE2=End Of the World
TTITLE3=Oh Lonesome Me
TTITLE4=I Can't Stop Loving You
TTITLE5=Me And Bobby McGee
TTITLE6=Can't Help Falling in Love with you
TTITLE7=Let It Be Me
TTITLE8=Singing The Blues
TTITLE9=I Really Don't Want to Know
TTITLE10=A Fool Such As I
TTITLE11=Always On My Mind
TTITLE12='Til I Kissed You
TTITLE13=Loving Arms
TTITLE14=Are You Lonesome Tonight
EXTD=
EXTT0=
EXTT1=
EXTT2=
EXTT3=
EXTT4=
EXTT5=
EXTT6=
EXTT7=
EXTT8=
EXTT9=
EXTT10=
EXTT11=
EXTT12=
EXTT13=
EXTT14=
PLAYORDER=
